<svg width="40" height="40" viewBox="0 0 40 40" fill="none" xmlns="http://www.w3.org/2000/svg">
<circle cx="20" cy="20" r="20" fill="#27DEBF"/>
<path d="M19.1462 24.08C19.9728 24.08 20.5995 23.86 21.0262 23.42C21.4662 22.98 21.6862 22.4467 21.6862 21.82C21.6862 21.06 21.4595 20.5 21.0062 20.14C20.5528 19.78 19.8395 19.6 18.8662 19.6H17.4262V18.22L19.8462 14.92L20.9862 14.02L19.4062 14.2H16.0462V12H23.6862V13.42L20.8662 17.2L19.9862 17.74V17.84L20.8262 17.72C21.2928 17.76 21.7328 17.8667 22.1462 18.04C22.5728 18.2133 22.9395 18.4667 23.2462 18.8C23.5662 19.12 23.8195 19.52 24.0062 20C24.1928 20.48 24.2862 21.0333 24.2862 21.66C24.2862 22.4467 24.1528 23.1267 23.8862 23.7C23.6328 24.2733 23.2728 24.7533 22.8062 25.14C22.3528 25.5267 21.8195 25.8133 21.2062 26C20.5928 26.1867 19.9328 26.28 19.2262 26.28C18.6395 26.28 18.0328 26.2267 17.4062 26.12C16.7795 26.0133 16.2728 25.86 15.8862 25.66L16.5862 23.5C16.9328 23.6733 17.3128 23.8133 17.7262 23.92C18.1528 24.0267 18.6262 24.08 19.1462 24.08Z" fill="white"/>
</svg>
