<svg width="40" height="40" viewBox="0 0 40 40" fill="none" xmlns="http://www.w3.org/2000/svg">
<circle cx="20" cy="20" r="20" fill="#F6F7FC"/>
<path d="M23.8262 15.42C23.8262 16.1 23.6995 16.7867 23.4462 17.48C23.2062 18.1733 22.8928 18.8533 22.5062 19.52C22.1328 20.1867 21.7128 20.8333 21.2462 21.46C20.7928 22.0733 20.3462 22.64 19.9062 23.16L18.8462 23.98V24.08L20.2862 23.8H24.1262V26H15.7062V24.66C16.0262 24.3267 16.3862 23.94 16.7862 23.5C17.1862 23.0467 17.5862 22.5733 17.9862 22.08C18.3995 21.5733 18.7995 21.0533 19.1862 20.52C19.5728 19.9867 19.9195 19.4533 20.2262 18.92C20.5328 18.3733 20.7728 17.8467 20.9462 17.34C21.1328 16.8333 21.2262 16.3533 21.2262 15.9C21.2262 15.3533 21.0662 14.9067 20.7462 14.56C20.4395 14.2 19.9462 14.02 19.2662 14.02C18.8395 14.02 18.3995 14.1133 17.9462 14.3C17.5062 14.4733 17.1328 14.7 16.8262 14.98L15.7862 13.14C16.3062 12.7133 16.8928 12.3733 17.5462 12.12C18.2128 11.8533 18.9928 11.72 19.8862 11.72C20.4595 11.72 20.9862 11.8 21.4662 11.96C21.9462 12.12 22.3595 12.3533 22.7062 12.66C23.0528 12.9667 23.3262 13.3533 23.5262 13.82C23.7262 14.2733 23.8262 14.8067 23.8262 15.42Z" fill="#BBC4DA"/>
</svg>
