<svg width="16" height="16" viewBox="0 0 16 16" fill="none" xmlns="http://www.w3.org/2000/svg">
<path d="M0.333768 2.97362C2.52971 4.83334 6.38289 8.10516 7.51539 9.12531C7.66742 9.263 7.83049 9.333 7.99977 9.333C8.16871 9.333 8.33149 9.26366 8.48317 9.12663C9.61664 8.10547 13.4698 4.83334 15.6658 2.97362C15.8025 2.85806 15.8234 2.65494 15.7127 2.51366C15.4568 2.18719 15.0753 2 14.6664 2H1.33311C0.924268 2 0.542737 2.18719 0.286893 2.51369C0.176205 2.65494 0.197049 2.85806 0.333768 2.97362Z" fill="#29375A"/>
<path d="M15.8067 3.98149C15.6885 3.92649 15.5495 3.94567 15.4512 4.02967C13.0159 6.09411 9.90788 8.7403 8.93 9.62145C8.38116 10.1169 7.61944 10.1169 7.06931 9.6208C6.027 8.68167 2.53675 5.71455 0.548813 4.02964C0.449844 3.94564 0.310531 3.92711 0.193344 3.98145C0.0755312 4.03617 0 4.15402 0 4.28389V12.6667C0 13.4021 0.597969 14 1.33334 14H14.6667C15.402 14 16 13.4021 16 12.6667V4.28389C16 4.15402 15.9245 4.03586 15.8067 3.98149Z" fill="#29375A"/>
</svg>
